Coordinates
version=1
nRows=11
nColumns=36
inDegrees=yes

Units are S.I. units (second, meters, Newtons, ...)
If the header above contains a line with 'inDegrees', this indicates whether rotational values are in degrees (yes) or radians (no).

endheader
time	pelvis_tilt	pelvis_list	pelvis_rotation	pelvis_tx	pelvis_ty	pelvis_tz	hip_flexion_r	hip_adduction_r	hip_rotation_r	knee_angle_r	knee_angle_r_beta	ankle_angle_r	subtalar_angle_r	mtp_angle_r	hip_flexion_l	hip_adduction_l	hip_rotation_l	knee_angle_l	knee_angle_l_beta	ankle_angle_l	subtalar_angle_l	mtp_angle_l	lumbar_extension	lumbar_bending	lumbar_rotation	arm_flex_r	arm_add_r	arm_rot_r	elbow_flex_r	pro_sup_r	arm_flex_l	arm_add_l	arm_rot_l	elbow_flex_l	pro_sup_l
     14.90000000	     -4.37356172	      3.08025727	    179.35776463	      0.65514154	      1.07090851	      0.67774825	      0.22094554	      5.45784379	      1.59130219	     15.12085683	      0.26390874	     -1.57130039	    -14.90210506	     -7.49999987	     23.09484969	     -7.81227561	     -1.16823934	     62.60614252	      1.09268332	      0.40575772	     -8.68273494	     -7.49999987	    -17.98549575	      2.22828077	      6.51621210	     12.67177025	    -15.40241498	      3.54195707	     25.65775066	    102.49396815	     14.77404284	     -8.23513714	      3.06844480	     17.15395039	    104.71541470
     14.91666670	     -4.19268980	      3.07176521	    179.28687581	      0.65474511	      1.07232598	      0.67808144	     -0.70125233	      5.61915128	      1.83387116	     13.93580815	      0.24322574	     -1.75084227	    -14.56919140	     -7.49999987	     23.42179357	     -7.74576664	     -1.38734540	     58.32253922	      1.01792034	      0.46560095	     -8.68867086	     -7.49999987	    -17.73222032	      2.15255208	      6.73205952	     12.76114702	    -15.92756970	      4.15992763	     26.61177318	    101.52291561	     14.47340035	     -8.00164658	      4.21592751	     15.90813457	    104.32935348
     14.93333330	     -4.05543034	      3.12132836	    179.37570192	      0.65433069	      1.07549291	      0.67888024	     -1.70689668	      5.81009602	      1.91372615	     12.95229605	      0.22606021	     -1.97936190	    -14.25234412	     -7.49999987	     23.30671300	     -7.67876390	     -1.59206555	     53.02828046	      0.92551809	     -0.02058344	     -8.72019053	     -7.49999987	    -17.46890556	      2.16099711	      6.74850460	     12.47686701	    -16.40366059	      4.25178542	     27.91411855	    101.12808281	     14.22036719	     -7.83029412	      5.53019289	     14.71138848	    104.87305353
     14.95000000	     -3.92541398	      3.16746871	    179.40770206	      0.65406523	      1.07782746	      0.67979819	     -2.67697884	      5.92886114	      1.95860670	     12.30599585	      0.21478015	     -1.97273870	    -13.84831224	     -7.49999987	     22.71156708	     -7.54762283	     -1.98788023	     46.71271828	      0.81529074	     -0.98859085	     -8.69248760	     -7.49999987	    -17.15713284	      2.18151442	      6.76850500	     12.04993095	    -16.91117786	      4.24674963	     29.00322455	    100.50566150	     13.91036081	     -7.62851922	      6.65833507	     13.51162539	    104.87991469
     14.96666670	     -3.75798499	      3.25283932	    179.43728852	      0.65414759	      1.07780883	      0.68072117	     -3.56049206	      6.03586861	      1.92224551	     11.92390203	      0.20811135	     -1.80264084	    -13.46819757	     -7.49999987	     21.76270786	     -7.35570889	     -2.46486356	     39.63782669	      0.69181058	     -2.35740662	     -8.23277671	     -7.49999987	    -16.76234162	      2.27907497	      6.63625181	     11.56465896	    -17.39217777	      4.12866337	     30.15762344	    100.07113943	     13.42780204	     -7.53281490	      7.75649798	     12.43378515	    104.96455145
     14.98333330	     -3.57322809	      3.46040116	    179.49578748	      0.65513161	      1.07644338	      0.68220198	     -4.42129415	      6.21056778	      1.81230334	     11.65687571	      0.20345086	     -1.38069379	    -12.91982672	     -7.49999987	     20.66319976	     -7.16441398	     -2.83497986	     32.18291239	      0.56169778	     -3.91369948	     -7.47984858	     -7.49999987	    -16.36163612	      2.54351944	      6.50463319	     11.05030409	    -17.94971374	      4.09929151	     31.42621272	     99.02192643	     12.82868611	     -7.44271111	      8.79630258	     11.55129957	    104.65245960
     15.00000000	     -3.40053276	      3.86831598	    179.55186268	      0.65652593	      1.07568520	      0.68419164	     -5.36838509	      6.54610536	      1.69044875	     11.30072996	      0.19723495	     -0.74016183	    -12.19202610	     -7.49999987	     19.53334023	     -7.10587161	     -3.02456111	     24.68050644	      0.43075610	     -5.69079893	     -6.63354037	     -7.49999987	    -15.98651198	      3.06314371	      6.38775707	     10.59011007	    -18.63208463	      4.31995481	     32.91216496	     98.90220073	     12.07256507	     -7.36644454	      9.35088497	     11.07745395	    105.03113861
     15.01666670	     -3.34841206	      4.44888343	    179.54862844	      0.65770570	      1.07441378	      0.68614237	     -6.51319255	      7.02793496	      1.61128323	     10.80440455	      0.18857243	      0.14262107	    -11.18339318	     -7.49999987	     18.36520304	     -7.25861843	     -3.02998092	     17.63068186	      0.30771345	     -7.46005785	     -5.79989482	     -7.49999987	    -15.74464538	      3.78575039	      6.28048631	     10.32104482	    -19.26070321	      4.40013459	     34.40709893	     99.14323860	     11.25376878	     -7.25440351	      9.16389248	     10.87768837	    105.45161469
     15.03333330	     -3.35953922	      5.12584044	    179.50287227	      0.65908363	      1.07164856	      0.68877471	     -7.68392296	      7.57826510	      1.45837406	     10.35486655	      0.18072651	      1.27976636	     -9.84424214	     -7.49999987	     17.39196859	     -7.62271110	     -2.97640293	     11.72769670	      0.20468692	     -8.60812176	     -4.73722516	     -7.49999987	    -15.54448180	      4.59214065	      6.27825392	     10.24917706	    -19.91587241	      4.80012228	     35.60762260	     98.88112880	     10.66952217	     -7.11159099	      9.49245318	     10.50336505	    105.72392600
     15.05000000	     -3.38501314	      5.75974841	    179.45093092	      0.66100615	      1.06760080	      0.69284264	     -8.72444411	      8.07430250	      1.43495728	     10.14148480	      0.17700230	      2.41790394	     -8.81592011	     -7.49999987	     16.70798772	     -7.99029412	     -2.56396286	      7.40731245	      0.12928199	     -9.09952967	     -4.17517178	     -7.49999987	    -15.46688759	      5.36065659	      6.20713567	     10.35293407	    -20.66909651	      5.80660904	     36.85011376	     97.54707513	     10.20991391	     -7.06219523	     10.63957114	     10.29220568	    105.21741936
     15.06666670	     -3.13049367	      6.24805818	    179.34985820	      0.66267278	      1.06257435	      0.69699490	     -9.23024360	      8.43384383	      1.75098405	     10.37465120	      0.18107182	      3.34799916	     -8.84226993	     -7.49999987	     16.74064961	     -8.26592231	     -1.97984067	      4.99488066	      0.08717711	     -8.47458597	     -3.76512596	     -7.49999987	    -15.13345167	      5.97023279	      6.22492101	     10.67334854	    -20.99094759	      5.75407964	     37.12199648	     97.53782236	      9.90760893	     -6.94250284	     10.64310830	     10.18222382	    105.19557540
